<svg xmlns="http://www.w3.org/2000/svg" width="24" height="24" viewBox="0 0 24 24">
    <g fill="none" fill-rule="evenodd">
        <path d="M0 0h24v24H0z"/>
        <path fill="#9E9E9E" fill-rule="nonzero" d="M18.053 10.138h-.576l-.002-2.736C17.472 4.422 14.93 1.998 11.807 2c-3.124.003-5.666 2.427-5.664 5.406l.005 2.736h-.205C4.869 10.145 3.997 10.976 4 12v8.144C4 21.168 4.874 22 5.947 22l12.11-.007c1.074 0 1.946-.83 1.943-1.856v-8.146c0-1.024-.874-1.853-1.947-1.853zm-9.818.004L8.23 7.407c0-1.882 1.603-3.413 3.577-3.416 1.973 0 3.578 1.531 3.578 3.412l.005 2.735-7.155.004z"/>
    </g>
</svg>
