<svg width="286" height="100" viewBox="0 0 286 100" fill="none" xmlns="http://www.w3.org/2000/svg">
<g filter="url(#filter0_d)">
<circle cx="59" cy="47.9999" r="42.6667" fill="white"/>
</g>
<g filter="url(#filter1_d)">
<path d="M58.9091 72.8648L57.8122 72.4215C48.5483 68.9289 42.168 63.1289 38.2912 55.697C36.2671 51.8166 35.0288 47.6857 34.4247 43.4929C34.0096 40.6119 33.9355 38.0473 34.0593 35.9761C34.0702 35.7934 34.082 35.6303 34.0941 35.4872C34.1021 35.3935 34.1078 35.334 34.1139 35.275L34.3746 33.1638L35.7648 32.8074L36.3793 32.6499C42.6631 31.0082 47.7684 29.0509 51.7951 26.9506C53.2378 26.198 54.449 25.4739 55.4398 24.8005C55.8031 24.5536 56.1161 24.3272 56.3795 24.1248C56.5588 23.9871 56.6936 23.8771 56.7723 23.8085C58.0002 22.7343 59.8052 22.7315 61.0362 23.8C61.1296 23.88 61.2626 23.9878 61.4394 24.1233C61.705 24.327 62.0185 24.5534 62.3818 24.8002C63.3746 25.4746 64.5851 26.1985 66.0268 26.9507C70.0531 29.0515 75.156 31.0084 81.4296 32.6475L83.4437 33.1638L83.7022 35.2545C83.7105 35.334 83.7162 35.3935 83.7241 35.4872C83.7363 35.6303 83.7481 35.7934 83.759 35.9761C83.8827 38.0473 83.8087 40.6119 83.3936 43.4929C82.7895 47.6857 81.5512 51.8166 79.527 55.697C75.6503 63.1289 69.27 68.9289 60.0061 72.4215L58.9091 72.8648Z" fill="white"/>
</g>
<mask id="mask0" mask-type="alpha" maskUnits="userSpaceOnUse" x="34" y="23" width="50" height="50">
<path d="M58.9091 72.8648L57.8122 72.4215C48.5483 68.9289 42.168 63.1289 38.2912 55.697C36.2671 51.8166 35.0288 47.6857 34.4247 43.4929C34.0096 40.6119 33.9355 38.0473 34.0593 35.9761C34.0702 35.7934 34.082 35.6303 34.0941 35.4872C34.1021 35.3935 34.1078 35.334 34.1139 35.275L34.3746 33.1638L35.7648 32.8074L36.3793 32.6499C42.6631 31.0082 47.7684 29.0509 51.7951 26.9506C53.2378 26.198 54.449 25.4739 55.4398 24.8005C55.8031 24.5536 56.1161 24.3272 56.3795 24.1248C56.5588 23.9871 56.6936 23.8771 56.7723 23.8085C58.0002 22.7343 59.8052 22.7315 61.0362 23.8C61.1296 23.88 61.2626 23.9878 61.4394 24.1233C61.705 24.327 62.0185 24.5534 62.3818 24.8002C63.3746 25.4746 64.5851 26.1985 66.0268 26.9507C70.0531 29.0515 75.156 31.0084 81.4296 32.6475L83.4437 33.1638L83.7022 35.2545C83.7105 35.334 83.7162 35.3935 83.7241 35.4872C83.7363 35.6303 83.7481 35.7934 83.759 35.9761C83.8827 38.0473 83.8087 40.6119 83.3936 43.4929C82.7895 47.6857 81.5512 51.8166 79.527 55.697C75.6503 63.1289 69.27 68.9289 60.0061 72.4215L58.9091 72.8648Z" fill="white"/>
</mask>
<g mask="url(#mask0)">
<path fill-rule="evenodd" clip-rule="evenodd" d="M58.9547 70.5717L81.6597 34.8601L104.971 52.2L76.044 82.9405L58.9547 70.5717Z" fill="url(#paint0_linear)"/>
</g>
<path d="M81.6097 35.4913C81.6364 35.749 84.3102 61.0279 59.2388 70.4642L58.909 70.5975L58.5793 70.4642C33.5078 61.0279 36.1816 35.749 36.2084 35.4913L36.2886 34.8427L36.9125 34.6827C51.5026 30.8709 57.5276 25.9395 58.1604 25.3886C58.5971 25.0065 59.221 25.0065 59.6577 25.3886C60.2994 25.9395 66.3155 30.8709 80.9056 34.6827L81.5294 34.8427L81.6097 35.4913Z" fill="#FF5252"/>
<mask id="mask1" mask-type="alpha" maskUnits="userSpaceOnUse" x="36" y="25" width="46" height="46">
<path d="M81.6097 35.4913C81.6364 35.749 84.3102 61.0279 59.2388 70.4642L58.909 70.5975L58.5793 70.4642C33.5078 61.0279 36.1816 35.749 36.2084 35.4913L36.2886 34.8427L36.9125 34.6827C51.5026 30.8709 57.5276 25.9395 58.1604 25.3886C58.5971 25.0065 59.221 25.0065 59.6577 25.3886C60.2994 25.9395 66.3155 30.8709 80.9056 34.6827L81.5294 34.8427L81.6097 35.4913Z" fill="white"/>
</mask>
<g mask="url(#mask1)">
<path fill-rule="evenodd" clip-rule="evenodd" d="M66.0433 55.3186C70.263 51.0989 70.2701 44.2646 66.0592 40.0537C65.979 39.9735 65.8978 39.8948 65.8157 39.8176L65.9812 39.6522L83.103 56.7739L67.7551 72.1218L52.0773 56.4439C56.2945 59.5041 62.2342 59.1277 66.0433 55.3186Z" fill="url(#paint1_linear)"/>
<path fill-rule="evenodd" clip-rule="evenodd" d="M81.9314 24.5348V70.5975H58.8521C58.8521 70.5975 59.011 49.7636 58.8521 24.5348C58.8423 22.9838 81.9314 24.5348 81.9314 24.5348Z" fill="url(#paint2_linear)"/>
</g>
<g filter="url(#filter2_d)">
<path fill-rule="evenodd" clip-rule="evenodd" d="M66.5751 40.3062C68.6479 42.3427 69.7666 45.0689 69.7666 47.9593C69.7666 50.8497 68.6479 53.5759 66.5751 55.6123C64.4694 57.7473 61.7057 58.7983 58.9091 58.7983C56.1453 58.7983 53.3487 57.7473 51.243 55.6123C49.1702 53.5759 48.0515 50.8497 48.0515 47.9593C48.0515 45.0689 49.1702 42.3427 51.243 40.3062C55.4544 36.0691 62.3637 36.0691 66.5751 40.3062ZM64.7327 53.7729C66.279 52.2292 67.1345 50.1599 67.1345 47.9592C67.1345 46.2184 66.5752 44.5433 65.5881 43.1638L54.1054 54.6269C55.4873 55.6123 57.1653 56.1707 58.9091 56.1707C61.1135 56.1707 63.1863 55.3167 64.7327 53.7729ZM63.7126 41.2917L52.2299 52.7548C51.2429 51.3753 50.6836 49.7002 50.6836 47.9593C50.6836 45.7587 51.539 43.6894 53.0854 42.1457C54.6318 40.6019 56.7046 39.7479 58.909 39.7479C60.6528 39.7479 62.3307 40.3063 63.7126 41.2917Z" fill="url(#paint3_linear)"/>
</g>
<path d="M121.667 37.3333H164.333" stroke="#9E9E9E" stroke-width="2.66666" stroke-miterlimit="10"/>
<path d="M164.333 58.6667H121.667" stroke="#9E9E9E" stroke-width="2.66666" stroke-miterlimit="10"/>
<path d="M153.667 26.6667L164.333 37.3334L153.667 48.0001" stroke="#9E9E9E" stroke-width="2.66666" stroke-miterlimit="10" stroke-linecap="square"/>
<path d="M132.333 69.3334L121.667 58.6667L132.333 48" stroke="#9E9E9E" stroke-width="2.66666" stroke-miterlimit="10" stroke-linecap="square"/>
<g filter="url(#filter3_d)">
<circle cx="227" cy="47.9999" r="42.6667" fill="white"/>
</g>
<path d="M211.538 55.0355C211.538 58.119 209.02 60.638 205.936 60.638C202.852 60.638 200.333 58.119 200.333 55.0355C200.333 51.9519 202.852 49.4329 205.936 49.4329H211.538V55.0355Z" fill="#E01E5A"/>
<path d="M214.362 55.0355C214.362 51.9519 216.881 49.4329 219.964 49.4329C223.048 49.4329 225.567 51.9519 225.567 55.0355V69.0636C225.567 72.1472 223.048 74.6662 219.964 74.6662C216.881 74.6662 214.362 72.1472 214.362 69.0636V55.0355Z" fill="#E01E5A"/>
<path d="M219.964 32.5384C216.881 32.5384 214.362 30.0194 214.362 26.9358C214.362 23.8522 216.881 21.3333 219.964 21.3333C223.048 21.3333 225.567 23.8522 225.567 26.9358V32.5384H219.964Z" fill="#36C5F0"/>
<path d="M219.964 35.3613C223.048 35.3613 225.567 37.8803 225.567 40.9639C225.567 44.0475 223.048 46.5665 219.964 46.5665H205.936C202.852 46.5665 200.333 44.0475 200.333 40.9639C200.333 37.8803 202.852 35.3613 205.936 35.3613H219.964Z" fill="#36C5F0"/>
<path d="M242.461 40.9639C242.461 37.8803 244.98 35.3613 248.064 35.3613C251.147 35.3613 253.666 37.8803 253.666 40.9639C253.666 44.0475 251.147 46.5665 248.064 46.5665H242.461V40.9639Z" fill="#2EB67D"/>
<path d="M239.638 40.964C239.638 44.0476 237.119 46.5666 234.036 46.5666C230.952 46.5666 228.433 44.0476 228.433 40.964V26.9358C228.433 23.8522 230.952 21.3333 234.036 21.3333C237.119 21.3333 239.638 23.8522 239.638 26.9358V40.964Z" fill="#2EB67D"/>
<path d="M234.036 63.4609C237.119 63.4609 239.638 65.9799 239.638 69.0635C239.638 72.1471 237.119 74.6661 234.036 74.6661C230.952 74.6661 228.433 72.1471 228.433 69.0635V63.4609H234.036Z" fill="#ECB22E"/>
<path d="M234.036 60.6383C230.952 60.6383 228.433 58.1193 228.433 55.0357C228.433 51.9521 230.952 49.4331 234.036 49.4331H248.064C251.148 49.4331 253.667 51.9521 253.667 55.0357C253.667 58.1193 251.148 60.6383 248.064 60.6383H234.036Z" fill="#ECB22E"/>
<defs>
<filter id="filter0_d" x="10.3333" y="2.33325" width="97.3333" height="97.3333" filterUnits="userSpaceOnUse" color-interpolation-filters="sRGB">
<feFlood flood-opacity="0" result="BackgroundImageFix"/>
<feColorMatrix in="SourceAlpha" type="matrix" values="0 0 0 0 0 0 0 0 0 0 0 0 0 0 0 0 0 0 127 0"/>
<feOffset dy="3"/>
<feGaussianBlur stdDeviation="3"/>
<feColorMatrix type="matrix" values="0 0 0 0 0.054902 0 0 0 0 0.117647 0 0 0 0 0.243137 0 0 0 0.08 0"/>
<feBlend mode="normal" in2="BackgroundImageFix" result="effect1_dropShadow"/>
<feBlend mode="normal" in="SourceGraphic" in2="effect1_dropShadow" result="shape"/>
</filter>
<filter id="filter1_d" x="31.3383" y="20.3341" width="55.1416" height="55.1974" filterUnits="userSpaceOnUse" color-interpolation-filters="sRGB">
<feFlood flood-opacity="0" result="BackgroundImageFix"/>
<feColorMatrix in="SourceAlpha" type="matrix" values="0 0 0 0 0 0 0 0 0 0 0 0 0 0 0 0 0 0 127 0"/>
<feOffset/>
<feGaussianBlur stdDeviation="1.33333"/>
<feColorMatrix type="matrix" values="0 0 0 0 0 0 0 0 0 0 0 0 0 0 0 0 0 0 0.174423 0"/>
<feBlend mode="normal" in2="BackgroundImageFix" result="effect1_dropShadow"/>
<feBlend mode="normal" in="SourceGraphic" in2="effect1_dropShadow" result="shape"/>
</filter>
<filter id="filter2_d" x="45.3848" y="34.4618" width="27.0484" height="27.0032" filterUnits="userSpaceOnUse" color-interpolation-filters="sRGB">
<feFlood flood-opacity="0" result="BackgroundImageFix"/>
<feColorMatrix in="SourceAlpha" type="matrix" values="0 0 0 0 0 0 0 0 0 0 0 0 0 0 0 0 0 0 127 0"/>
<feOffset/>
<feGaussianBlur stdDeviation="1.33333"/>
<feColorMatrix type="matrix" values="0 0 0 0 0 0 0 0 0 0 0 0 0 0 0 0 0 0 0.174423 0"/>
<feBlend mode="normal" in2="BackgroundImageFix" result="effect1_dropShadow"/>
<feBlend mode="normal" in="SourceGraphic" in2="effect1_dropShadow" result="shape"/>
</filter>
<filter id="filter3_d" x="178.333" y="2.33325" width="97.3333" height="97.3333" filterUnits="userSpaceOnUse" color-interpolation-filters="sRGB">
<feFlood flood-opacity="0" result="BackgroundImageFix"/>
<feColorMatrix in="SourceAlpha" type="matrix" values="0 0 0 0 0 0 0 0 0 0 0 0 0 0 0 0 0 0 127 0"/>
<feOffset dy="3"/>
<feGaussianBlur stdDeviation="3"/>
<feColorMatrix type="matrix" values="0 0 0 0 0.054902 0 0 0 0 0.117647 0 0 0 0 0.243137 0 0 0 0.08 0"/>
<feBlend mode="normal" in2="BackgroundImageFix" result="effect1_dropShadow"/>
<feBlend mode="normal" in="SourceGraphic" in2="effect1_dropShadow" result="shape"/>
</filter>
<linearGradient id="paint0_linear" x1="100.343" y1="40.1049" x2="59.3638" y2="40.1049" gradientUnits="userSpaceOnUse">
<stop stop-opacity="0.01"/>
<stop offset="1" stop-opacity="0.0518286"/>
</linearGradient>
<linearGradient id="paint1_linear" x1="71.6251" y1="57.1117" x2="68.174" y2="52.7045" gradientUnits="userSpaceOnUse">
<stop stop-opacity="0.01"/>
<stop offset="1" stop-opacity="0.0518286"/>
</linearGradient>
<linearGradient id="paint2_linear" x1="79.6102" y1="28.8686" x2="59.0572" y2="28.8686" gradientUnits="userSpaceOnUse">
<stop stop-opacity="0.01"/>
<stop offset="1" stop-opacity="0.0518286"/>
</linearGradient>
<linearGradient id="paint3_linear" x1="74.0709" y1="47.9161" x2="59.0641" y2="63.1096" gradientUnits="userSpaceOnUse">
<stop stop-color="white"/>
<stop offset="1" stop-color="#E2E0E0"/>
</linearGradient>
</defs>
</svg>
